<?xml version="1.0" encoding="UTF-8"?>
<svg width="600" height="360" version="1.1" xmlns="http://www.w3.org/2000/svg">
 <path d="m440.91 316.94h4.9197l15.308 24.673h0.0915v-24.673h4.0101v30.541h-4.6508l-15.577-24.678h-0.086v24.678h-4.0159zm-21.445 2.8459c-6.6588 0-10.669 5.23-10.669 12.422 0 7.1919 4.0101 12.422 10.669 12.422 6.6473 0 10.669-5.23 10.669-12.422s-4.0216-12.422-10.669-12.422m0 28.5c-11.435 0-14.936-9.479-14.936-16.078 0-6.5931 3.501-16.078 14.936-16.078 11.436 0 14.937 9.4847 14.937 16.078 0 6.5987-3.501 16.078-14.937 16.078m-26.838-0.8007h4.1417v-30.542h-4.1417zm-32.117-30.545h24.873v3.6615h-10.366v26.88h-4.1417v-26.88h-10.366zm-9.1284 17.992-4.5193-13.443h-0.086l-4.9026 13.443zm-10.789 3.6559-3.1921 8.8915h-4.279l11.516-30.542h4.7023l11.087 30.542h-4.5136l-3.0319-8.8915zm-38.022-21.648h4.914l15.308 24.673h0.0974v-24.673h4.0101v30.541h-4.6509l-15.571-24.678h-0.0915v24.678h-4.0159zm-14.831 30.545h4.1303v-30.542h-4.1303zm-14.541 0v-18.04c0-0.8897 0.086-4.7623 0.086-7.6139h-0.086l-8.621 25.654h-4.1017l-8.6152-25.608h-0.086c0 2.806 0.086 6.6786 0.086 7.5683v18.04h-4.0159v-30.542h5.9265l8.7582 25.813h0.08l8.7068-25.813h5.8922v30.542zm-33.955-30.541v19.825c0 6.2452-3.9301 11.521-12.334 11.521-8.2434 0-11.784-5.2756-11.784-10.973v-20.372h4.1475v19.226c0 6.633 4.0559 8.4638 7.7628 8.4638 3.7928 0 8.0603-1.7453 8.0603-8.384v-19.306zm-29.513 30.543h-19.679v-30.547h4.1474v26.886h15.531zm-26.793 0h-19.673v-30.547h4.1417v26.886h15.531zm-34.129 0h4.136v-30.542h-4.136zm265.94-136.47-24.038-42.581-7.9174 12.382v30.197h-41.938v-194.62l41.938 11.834v95.965h0.5263l23.203-32.709h50.719l-36.412 42.188 44.632 77.343zm-221.58-119.73c0.69794 0.34804 0.64074 0.96385 0.64074 1.4429 0 9.0455 0.36032 19.671 0.36032 19.671 2.2596-4.0152 4.2561-6.9467 6.2412-9.1824 1.9965-2.2357 3.9644-3.7984 6.224-5.0646 4.2962-2.4239 8.7297-3.8555 13.255-4.4657 4.5307-0.61597 9.1473-0.39927 13.798 0.49048 2.397 0.4563 5.4117 1.3118 8.7068 2.8631 3.2951 1.557 6.8533 3.8042 10.314 7.0266 0.40054 0.37641 1.1441 0.95818 2.1567 2.1787 1.0068 1.2205 2.2825 3.0969 3.787 6.0342 2.2138-3.73 4.2504-6.6273 6.3613-8.9429 2.1052-2.3156 4.279-4.0437 6.7045-5.4239 2.6143-1.4715 5.8236-2.6236 9.439-3.4049 3.6383-0.77565 7.637-1.192 11.779-1.192 6.1439 0 12.385 1.7281 17.711 4.6539 5.3144 2.9201 9.6964 7.0379 12.11 11.84 1.3272 2.6407 2.2596 4.8764 2.826 6.7984 0.59493 1.922 0.85808 3.5133 0.85808 4.8764v89.531h-49.626s0.0169-80.617 0.0169-85.077c0-2.8973-0.85237-5.1216-2.2997-6.5931-1.4473-1.4715-3.4953-2.2072-5.8579-2.1159-2.2425 0.0686-4.1188 0.86689-5.4174 2.3212-1.2986 1.4601-2.048 3.5931-2.048 6.3478v85.117h-50.233s0.0127-85.271 0.0127-85.973c0-0.40478-0.14861-2.3212-1.2986-4.1464-1.1613-1.8308-3.3294-3.576-7.3624-3.6387-2.2024-0.0296-4.2447 0.59887-5.7264 1.8308-1.4931 1.2433-2.4312 3.057-2.4312 5.3897v86.537h-46.022v-110.37s44.426-9.6672 45.021-9.3649m108.96-74.678c-7.8258 0.29639-45.822 3.3992-81.038 8.8516-86.902 12.696-167.29 54.034-170.27 123.1-4.525 105.56 190.98 161.26 451.36 94.396 51.634-11.783 82.628-20.064 82.628-20.064s4.9598-1.2661 5.1657-0.171c0.36032 1.7852-3.8385 3.0513-4.0216 3.1539-378.87 130.29-575.96 24.376-575.96-71.954 0-121.82 249.33-150.07 317.8-140.62 1.6761 0.22822 0.44623 1.3973-1.3386 1.9106-2.8203 0.79846-13.878 0.99806-24.335 1.403" fill="#ad9861"/>
</svg>
